<?xml version="1.0" encoding="UTF-8" standalone="no"?>
<svg
   xmlns:dc="http://purl.org/dc/elements/1.1/"
   xmlns:cc="http://creativecommons.org/ns#"
   xmlns:rdf="http://www.w3.org/1999/02/22-rdf-syntax-ns#"
   xmlns:svg="http://www.w3.org/2000/svg"
   xmlns="http://www.w3.org/2000/svg"
   xmlns:xlink="http://www.w3.org/1999/xlink"
   version="1.1"
   id="svg4168"
   viewBox="0 0 1837.1429 1431.4286"
   height="403.98096mm"
   width="518.48254mm">
  <defs
     id="defs4170">
    <linearGradient
       id="linearGradient4733">
      <stop
         id="stop4735"
         offset="0"
         style="stop-color:#6575a8;stop-opacity:1;" />
      <stop
         id="stop4737"
         offset="1"
         style="stop-color:#6575a8;stop-opacity:0;" />
    </linearGradient>
    <linearGradient
       gradientUnits="userSpaceOnUse"
       y2="1865.2194"
       x2="385.71426"
       y1="10.933646"
       x1="425.71426"
       id="linearGradient4739"
       xlink:href="#linearGradient4733" />
  </defs>
  <metadata
     id="metadata4173">
    <rdf:RDF>
      <cc:Work
         rdf:about="">
        <dc:format>image/svg+xml</dc:format>
        <dc:type
           rdf:resource="http://purl.org/dc/dcmitype/StillImage" />
        <dc:title></dc:title>
      </cc:Work>
    </rdf:RDF>
  </metadata>
  <g
     transform="translate(468.57144,10.494938)"
     id="layer1">
    <rect
       y="-10.494938"
       x="-468.57144"
       height="1431.4286"
       width="1837.1428"
       id="rect4729"
       style="opacity:1;fill:#ffffff;fill-opacity:1;stroke:none;stroke-width:2;stroke-linecap:round;stroke-linejoin:round;stroke-miterlimit:4;stroke-dasharray:none;stroke-opacity:1" />
    <rect
       style="opacity:1;fill:url(#linearGradient4739);fill-opacity:1;stroke:none;stroke-width:2;stroke-linecap:round;stroke-linejoin:round;stroke-miterlimit:4;stroke-dasharray:none;stroke-opacity:1"
       id="rect4731"
       width="1837.1428"
       height="1431.4286"
       x="-468.57144"
       y="-10.494938" />
    <path
       id="path4727"
       d="m -469.77089,1357.1391 c 0.0291,-48.0723 0.3414,-64.6565 1.24462,-66.0939 0.94022,-1.4962 0.93438,-2.1885 -0.0272,-3.1437 -1.47555,-1.4664 -1.65949,-7.825 -0.2264,-7.825 0.55343,0 1.00624,-0.6592 1.00624,-1.4648 0,-0.8057 0.90562,-1.9465 2.01248,-2.5352 3.66866,-1.9512 1.98672,-8 -2.2244,-8 -1.74724,0 -1.82049,-4.3376 -1.78668,-105.6756 0.0272,-80.9716 0.31184,-105.4007 1.21816,-104.5 0.65063,0.6466 2.3376,1.1825 3.74886,1.1909 3.75076,0.022 5.13525,1.2561 5.61221,5.0009 0.23344,1.8331 0.88871,3.7944 1.45623,4.3584 1.64671,1.6364 1.23305,2.36 -1.98692,3.4755 -3.76054,1.3028 -4.01018,4.3799 -0.48492,5.9762 2.21535,1.0031 2.80732,0.8347 4.70952,-1.3395 1.19672,-1.3678 2.74744,-2.4868 3.44617,-2.4868 0.69873,0 2.88027,-0.944 4.84808,-2.0978 l 3.57759,-2.0978 -0.52214,-8.6522 c -1.71333,-28.3863 -1.51349,-27.5548 -6.40634,-26.6528 -1.9985,0.3684 -4.36115,1.3181 -5.25027,2.1104 -1.40985,1.2564 -1.77954,1.2455 -2.89042,-0.085 -2.82513,-3.3829 -8.48303,-1.1372 -10.01704,3.976 -0.53824,1.7942 -0.92263,-60.26884 -0.95684,-154.50121 -0.0564,-155.49715 -0.0311,-157.58902 1.98925,-164.5 1.12557,-3.85 2.87211,-10.6 3.88116,-15 2.75621,-12.01796 5.0763,-20.76408 6.10146,-23 0.50432,-1.1 1.37804,-4.7 1.94174,-8 1.05383,-6.16983 4.71142,-20.44709 6.14834,-24 0.44485,-1.1 1.34474,-4.475 1.9997,-7.5 1.27068,-5.86829 3.02416,-11.97661 6.10124,-21.25398 2.43541,-7.34234 2.42958,-7.39925 -0.84091,-8.215 -2.18757,-0.54564 -3.16443,-0.1853 -4.77965,1.76324 -1.11662,1.34696 -3.08665,2.99265 -4.37795,3.65709 -1.95593,1.00644 -2.67027,0.91798 -4.28036,-0.53008 -1.12075,-1.008 -1.84825,-2.83881 -1.73173,-4.35832 0.29915,-3.90095 -0.89465,-5.06295 -5.20147,-5.06295 -7.75279,0 -7.08746,6.6282 -7.03835,-70.11 l 0.0443,-68.89 2.98261,0 c 2.24683,0 2.98249,-0.46311 2.98249,-1.87756 0,-2.39924 -2.54116,-4.51854 -4.5153,-3.7657 -1.3527,0.51587 -1.51591,-10.57569 -1.46589,-99.63812 0.0533,-95.66096 0.13463,-100.02669 1.78144,-95.99823 2.33841,5.72063 3.29917,6.46782 7.84054,6.09783 3.57266,-0.29106 4.19724,-0.80901 7.31749,-6.06822 2.3212,-3.91244 4.0461,-5.75 5.39728,-5.75 1.09227,0 3.63243,-0.8386 5.64471,-1.86355 8.81558,-4.49 11.23017,-5.23665 11.83864,-3.66081 1.25539,3.25112 -7.21466,13.52436 -11.15047,13.52436 -1.40995,0 -2.5636,0.39752 -2.5636,0.88337 0,0.48585 -0.89475,1.11589 -1.98823,1.40008 -1.09359,0.28419 -2.51601,1.79918 -3.16111,3.36663 -0.645,1.56746 -2.2407,5.14477 -3.546,7.94959 -1.3053,2.80482 -2.37332,6.22258 -2.37332,7.59501 0,2.71442 2.7718,5.80532 5.20609,5.80532 0.83911,0 2.34525,0.9 3.34696,2 2.23799,2.45756 5.2869,2.53383 10.5586,0.2641 4.16403,-1.79278 5.30893,-4.59499 2.86839,-7.02038 -0.88046,-0.87505 -0.23696,-2.27992 2.64562,-5.77598 3.09026,-3.74786 4.25096,-4.50949 6.15034,-4.03575 4.50756,1.12431 16.70492,-2.77055 19.99674,-6.38532 1.26726,-1.39169 3.11201,-2.04667 5.76435,-2.04667 4.62641,0 5.81165,1.88285 3.44497,5.47254 -2.21192,3.35483 -2.0327,6.73642 0.52858,9.97235 2.13696,2.69984 2.13857,2.74414 0.29292,8.14024 -1.62498,4.75103 -1.67318,5.60177 -0.3877,6.84239 2.192,2.11546 7.92023,2.63602 11.70641,1.06384 2.84203,-1.18009 3.34223,-1.88642 3.3218,-4.69033 -0.0131,-1.81557 -0.4363,-5.0679 -0.94023,-7.22741 -0.91779,-3.9326 0.64752,-9.04637 3.28629,-10.73653 1.56923,-1.00504 5.56663,2.02631 5.91952,4.48887 0.45421,3.17009 5.21635,3.06009 5.67157,-0.131 0.18082,-1.26778 -0.18686,-2.92249 -0.81706,-3.67714 -0.85944,-1.02915 -0.83378,-2.40719 0.10264,-5.51351 1.33819,-4.43869 4.07255,-7.00431 7.4649,-7.00431 3.11854,0 7.16424,4.90205 7.86176,9.52591 0.52818,3.50148 0.24905,4.36202 -2.14339,6.60606 -1.51289,1.41907 -4.65215,3.54415 -6.97607,4.7224 -2.7889,1.41393 -5.142,3.69662 -6.92143,6.71414 l -2.69603,4.57188 2.17026,2.91728 2.17037,2.91727 -3.03955,3.16084 c -4.07901,4.24174 -3.9798,7.73112 0.34956,12.29302 3.96711,4.18027 4.4991,4.27205 8.16264,1.40823 2.71604,-2.12327 2.75448,-2.30444 2.09026,-9.87096 -0.55153,-6.28361 -0.40441,-7.81177 0.79613,-8.26959 0.80993,-0.30888 2.28256,0.32786 3.27261,1.41498 2.64631,2.906 5.86014,2.07932 6.26495,-1.61146 0.45795,-4.17675 1.66886,-5.11333 4.59712,-3.55589 2.89093,1.53762 3.68697,3.91345 2.90834,8.68133 -0.46558,2.8512 -1.09509,3.58503 -3.4824,4.05955 -1.60284,0.31857 -3.35099,1.39019 -3.88469,2.38137 -1.18858,2.2071 -1.28206,8.62424 -0.13594,9.32821 1.38548,0.85099 7.06985,-3.70319 8.3202,-6.66603 1.5789,-3.74115 2.28568,-4.01891 6.14613,-2.41526 5.55013,2.30557 6.40362,4.05571 3.97374,8.14848 l -2.07507,3.49509 2.09993,5.02158 c 1.15496,2.76186 2.62821,5.02157 3.27381,5.02157 1.85098,0 3.58896,-2.20104 3.58896,-4.54501 0,-1.17976 0.87583,-2.9327 1.94627,-3.89542 1.85451,-1.66788 2.09067,-1.6656 5.01038,0.0484 3.00847,1.76612 3.12156,1.75653 6.23014,-0.52748 2.74915,-2.01989 3.89275,-2.24141 8.68297,-1.6819 l 5.51681,0.64437 14.22997,-14.31965 c 12.46099,-12.53963 15.85596,-15.32184 27.31101,-22.38182 7.19463,-4.43418 14.43956,-8.76219 16.09987,-9.61779 9.94146,-5.1231 15.52892,-7.72368 16.59473,-7.72368 0.66745,0 2.64028,-0.62135 4.3843,-1.38079 1.74391,-0.75943 6.11402,-2.29965 9.71134,-3.4227 6.50032,-2.02936 15.48727,-6.06073 24.1498,-10.83312 2.49044,-1.37204 8.37696,-4.45016 13.08113,-6.84025 7.2856,-3.70164 11.58164,-5.72163 21.13108,-9.93554 7.75621,-3.42265 17.0248,-10.44238 26.6654,-20.19557 3.3206,-3.35939 7.00415,-6.41076 8.18558,-6.78082 1.27732,-0.4001 4.24966,0.15037 7.33248,1.35797 6.418116,2.5141 18.6356,2.81052 21.909608,0.53157 1.184548,-0.8246 3.177008,-3.1871 4.427564,-5.25 1.250557,-2.06291 2.879361,-4.42575 3.619552,-5.25075 0.740192,-0.825 3.456138,-4.65 6.035437,-8.5 4.668459,-6.96858 18.046843,-23.85922 32.474436,-41.00002 12.022375,-14.2833 31.1278845,-32.8352 36.26122626,-35.2106 11.30633274,-5.2318 19.51756574,-6.6734 40.32935874,-7.0802 l 19.701306,-0.385 10.414501,6.1807 c 5.72803,3.3994 11.352317,6.5876 12.498427,7.0848 4.950104,2.1476 17.815406,9.6548 21.267524,12.4103 2.06721,1.65 6.85592,5.475 10.6416,8.5 10.16113,8.1194 12.12944,9.5531 15.45558,11.2579 7.13726,3.6583 14.91108,11.627 18.96704,19.4424 2.18374,4.2079 2.10043,5.3388 -0.6124,8.30992 -1.25025,1.36938 -3.0636,3.71455 -4.02949,5.2115 -0.9659,1.49694 -3.76636,4.19694 -6.2232,6 -7.85382,5.7638 -8.19695,9.36792 -2.10627,22.12332 4.51783,9.46128 7.93774,23.51055 7.34054,30.15496 -0.31023,3.45047 -1.61894,6.92649 -4.2231,11.21635 l -3.7737,6.21635 1.24089,6.90026 c 2.11925,11.78523 -0.0171,16.31534 -10.45425,22.16922 -8.37515,4.69736 -9.3824,6.01756 -10.04802,13.17053 -3.48593,37.45956 -4.05325,41.20471 -6.6727,44.04841 -2.55213,2.7707 -7.3993,4.32808 -21.321648,6.85056 -6.963898,1.26173 -12.171198,5.15151 -17.307357,12.92832 -1.271286,1.925 -3.522047,5.32419 -5.001423,7.55375 -2.172074,3.27326 -2.689986,5.22199 -2.689986,10.12139 0,5.63234 -0.280641,6.38177 -3.912268,10.44625 l -3.912368,4.37861 -7.40785,-0.0276 c -7.023868,-0.0262 -7.82534,-0.27488 -15.457884,-4.79698 -4.427463,-2.62315 -11.898807,-7.42945 -16.602987,-10.68067 -4.70418,-3.25122 -8.8424486,-5.93008 -9.1961425,-5.95303 -0.3536939,-0.0229 -3.7426151,-1.84171 -7.530813,-4.04171 -8.8387265,-5.13301 -15.0915115,-5.55484 -18.5286325,-1.25 -3.109991,3.89518 -2.213932,12.16906 2.521843,23.28372 1.984007,4.65645 4.033218,11.16628 4.553747,14.46628 2.675898,16.96402 3.3399174,20.63003 5.0717599,28 1.0339133,4.4 2.3988801,10.7 3.0333154,14 1.399984,7.28164 8.0735798,21.88353 11.8829087,26 1.5268713,1.65 4.062298,4.8 5.634249,7 1.57195,2.2 3.35652,4.45 3.965698,5 2.50685,2.26317 5.636362,9.93638 5.646626,13.8445 0.01107,4.24567 1.482898,9.93887 4.466405,17.27786 1.246331,3.06567 2.762233,4.67761 5.913883,6.2885 4.056261,2.07326 4.382283,2.0946 7.603363,0.49767 4.462581,-2.21242 6.950211,-7.97788 8.252087,-19.1256 1.187466,-10.16754 3.029291,-16.42004 5.62791,-19.10486 1.972032,-2.0375 8.777748,-7.94277 17.492504,-15.17807 5.331471,-4.42637 15.723432,-13.92108 23.212686,-21.20851 4.499515,-4.37828 7.391144,-9.67257 8.961384,-16.4071 0.62638,-2.68641 1.52475,-5.78439 1.99649,-6.88439 0.47172,-1.1 1.74602,-5.825 2.83166,-10.5 1.08573,-4.675 2.72399,-11.2 3.64058,-14.5 1.50856,-5.43087 2.82704,-11.47163 7.20268,-33 1.41005,-6.93778 3.99388,-17.97006 7.14321,-30.5 0.89857,-3.575 2.39998,-8.075 3.33639,-10 0.93652,-1.925 1.97908,-4.625 2.31688,-6 0.33779,-1.375 2.1786,-4.84944 4.09067,-7.72097 1.91205,-2.87153 3.7399,-6.0458 4.06189,-7.05392 1.02567,-3.21171 8.55658,-10.22512 10.9795,-10.22512 5.40926,0 28.12426,13.52883 37.32452,22.23015 6.92225,6.5469 14.0731,11.06273 18.26058,11.53179 3.38419,0.37908 4.55143,0.13193 5.01218,-1.06125 0.8703,-2.25385 3.4321,-13.43221 4.32453,-18.86969 1.1598,-7.06673 2.21343,-7.831 10.79516,-7.831 8.18568,0 9.47146,0.93859 9.47146,6.91393 0,2.54622 0.65979,3.37993 4.02496,5.08607 l 4.02497,2.04065 0,6.38185 c 0,6.10829 -0.12216,6.42418 -2.85069,7.36945 -1.70135,0.5894 -3.35883,2.20655 -4.11079,4.01082 -0.74312,1.78286 -2.257,3.27187 -3.6899,3.62928 -2.0638,0.51478 -2.42976,1.21034 -2.42976,4.61839 0,5.03326 1.79463,5.86483 6.58958,3.05331 1.97334,-1.15706 4.08272,-2.10375 4.68756,-2.10375 0.60496,0 3.63546,-1.19641 6.73468,-2.6587 3.09912,-1.46228 6.99328,-3.19709 8.65358,-3.85514 1.6603,-0.65804 5.05637,-2.11484 7.54681,-3.23733 2.49045,-1.12249 6.79213,-3.02632 9.55929,-4.23074 2.76718,-1.20442 8.65368,-3.90022 13.08115,-5.99068 4.42747,-2.09046 9.18195,-4.13471 10.56553,-4.54279 1.38359,-0.40807 6.24202,-2.48405 10.79658,-4.61328 4.55455,-2.12924 8.59109,-3.87134 8.97014,-3.87134 0.37894,0 3.89747,-1.50795 7.8189,-3.351 3.92132,-1.84305 8.71456,-3.8817 10.65157,-4.53033 5.20408,-1.74264 6.99529,-4.92807 8.07731,-14.36415 0.66833,-5.82851 1.4514,-8.6219 2.66432,-9.50452 1.19994,-0.87309 6.74212,-1.27241 18.38011,-1.32431 9.16424,-0.0409 17.70955,-0.26737 18.98959,-0.50332 4.14038,-0.76324 47.88855,-23.24275 51.00347,-26.20757 1.66029,-1.58031 4.61463,-4.68919 6.56512,-6.90862 1.95051,-2.21943 5.57297,-5.10876 8.04993,-6.42073 3.97376,-2.10482 5.92385,-2.40007 16.57844,-2.51005 l 12.0749,-0.12464 9.55929,-4.51491 c 5.25761,-2.4832 14.08739,-6.62974 19.62172,-9.21453 9.8676,-4.60864 12.42658,-5.79333 27.67164,-12.81059 14.26589,-6.56658 25.68099,-11.95069 37.23095,-17.56054 l 11.57177,-5.62046 11.57178,0.0432 c 18.80343,0.0702 32.23033,3.32621 52.32457,12.68864 5.1772,2.41222 8.4809,4.58091 15.59644,10.23842 6.22542,4.9498 7.70559,6.56692 12.41279,13.56076 3.61804,5.37561 4.30672,7.07736 7.66364,18.93924 5.31054,18.76501 3.06038,53.73618 -4.69714,73 -2.28477,5.67351 -9.20681,19.27399 -10.85845,21.33459 -6.19865,7.73346 -13.83854,14.08177 -22.61719,18.79339 -2.20508,1.1835 -7.29777,4.31605 -11.317,6.96118 -4.01923,2.64515 -10.13919,6.42546 -13.59996,8.40067 -7.79515,4.44914 -9.03303,5.21142 -15.03667,9.26016 -2.65054,1.78751 -5.00475,3.25 -5.23155,3.25 -0.22691,0 -3.288,1.80094 -6.8025,4.0021 -3.5145,2.20115 -7.29565,4.4743 -8.40252,5.05145 -2.33749,1.21881 -4.16977,2.29464 -25.02915,14.69645 -8.55698,5.08751 -16.04825,9.25 -16.64716,9.25 -0.59892,0 -1.08896,0.42894 -1.08896,0.95322 0,0.52425 -1.92443,1.86304 -4.27653,2.97508 -2.35209,1.11204 -5.18023,2.59561 -6.28467,3.29681 -1.10446,0.70119 -3.1421,1.99807 -4.5281,2.88194 -1.386,0.88388 -4.55756,2.73821 -7.04802,4.12075 -15.53354,8.62321 -24.81542,14.2033 -25.91072,15.57698 -0.88126,1.10522 -1.2578,6.12029 -1.2578,16.7515 0,17.37091 0.83398,19.62623 7.73297,20.91244 4.88169,0.91013 6.3355,-0.99693 6.41117,-8.40985 0.0996,-9.7668 1.4036,-11.86141 10.6885,-17.17185 4.52627,-2.5888 9.28076,-5.01928 10.56554,-5.40108 1.28477,-0.3818 3.37503,-1.34591 4.64501,-2.14248 1.27008,-0.79656 4.5787,-1.71542 7.3525,-2.0419 4.17369,-0.49124 5.54691,-0.22356 7.9641,1.55243 1.60637,1.18031 3.14542,2.14602 3.41991,2.14602 0.27451,0 2.21435,1.15669 4.31055,2.57043 9.64925,6.50752 10.20741,14.44736 2.10415,29.92957 -3.87011,7.39426 -5.24876,8.43249 -17.39792,13.10196 -3.87403,1.48896 -14.96785,6.49328 -24.65292,11.12071 -24.35286,11.63555 -24.15564,11.53624 -28.80528,14.49994 -3.80107,2.42275 -4.20559,3.09645 -4.78145,7.96204 -1.10234,9.31479 0.0403,30.25964 1.8388,33.7168 0.88681,1.7042 1.98089,3.09855 2.43128,3.09855 2.5138,0 3.15437,6.17191 3.15437,30.39207 0,23.70677 0.12195,25.40762 1.93862,27.04152 2.15819,1.94105 6.77724,1.86931 24.22366,-0.37621 13.40535,-1.72539 21.04675,-0.76545 26.43819,3.32128 5.62348,4.26251 6.73529,6.76856 6.75299,15.22086 0.0131,6.10513 -0.37281,7.6698 -2.75237,11.17106 -6.02457,8.86448 -14.06796,12.63939 -27.04365,12.69211 l -9.18286,0.0373 -5.03976,-5.25 c -8.89528,-9.26636 -8.29113,-13.11939 -8.29113,52.88197 0,57.60651 0.0191,58.16467 2.15345,61.75 2.23044,3.74747 2.88661,4.77869 12.31752,19.35899 3.10958,4.80753 5.65386,8.92005 5.65386,9.13894 0,0.21889 2.37725,4.02954 5.28278,8.46811 2.90551,4.43857 8.45242,13.05115 12.32645,19.13907 3.87403,6.08792 8.56775,13.41884 10.4304,16.29093 8.88561,13.70084 9.18558,14.6613 9.24937,29.61276 0.0322,7.48508 0.42101,18.6154 0.86467,24.73405 l 0.8065,11.12481 9.67994,19.55042 c 17.72385,35.79644 31.76333,64.79518 36.77069,75.94998 1.17267,2.6125 3.0144,6.6625 4.09259,9 1.07818,2.3375 2.42544,5.4875 2.99386,7 0.56833,1.5125 1.48884,2.75 2.04539,2.75 2.04327,0 2.36678,-5.8351 1.16352,-20.9885 -2.20618,-27.78434 -3.23457,-66.99115 -2.02486,-77.19647 0.60737,-5.12328 1.33408,-12.3003 1.61491,-15.94893 l 0.51067,-6.63387 -7.40221,-2.19382 c -10.50838,-3.1144 -18.62875,-7.02893 -20.04805,-9.66433 -1.94718,-3.61589 -0.55767,-9.09438 5.29444,-20.87411 3.00564,-6.05 6.72542,-14.825 8.26616,-19.5 2.96048,-8.98298 9.53375,-24.75098 15.26711,-36.62289 1.89193,-3.91758 3.43983,-7.52863 3.43983,-8.02455 0,-1.07788 8.08706,-20.38582 12.08476,-28.85256 1.55817,-3.3 3.14361,-8.7 3.52316,-12 0.62639,-5.44604 2.9663,-10.70248 9.57067,-21.5 0.50452,-0.825 2.774,-4.65 5.04318,-8.5 2.26918,-3.85 6.12821,-10.15 8.57569,-14 2.44738,-3.85 4.76254,-7.675 5.14462,-8.5 5.72632,-12.36294 19.16155,-23.43538 38.76606,-31.94846 2.59851,-1.12835 5.00594,-2.05154 5.34998,-2.05154 0.34393,0 2.21202,-1.20263 4.15116,-2.6725 1.93912,-1.46988 5.64461,-3.20652 8.23437,-3.85921 2.73658,-0.6897 4.83639,-1.83022 5.0137,-2.72322 0.16784,-0.84508 -1.72399,-4.01233 -4.20408,-7.03833 -2.48009,-3.02601 -6.23195,-7.91043 -8.33752,-10.85428 -2.10545,-2.94386 -4.39204,-5.93708 -5.08112,-6.65161 -0.68917,-0.71454 -1.83146,-2.06454 -2.53843,-3 -0.70699,-0.93547 -3.77352,-3.92938 -6.81458,-6.65315 -13.7996,-12.35997 -16.01534,-15.71767 -33.19178,-50.29804 -9.73479,-19.59856 -10.52087,-22.81496 -8.00366,-32.74966 2.40291,-9.48309 5.27815,-25.93857 6.63989,-38 0.80721,-7.15 2.18737,-15.25 3.06713,-18 2.15587,-6.73924 6.91338,-16.90053 8.53957,-18.23922 0.72591,-0.59758 5.16877,-2.73564 9.87294,-4.75124 4.70419,-2.01561 9.91148,-4.25014 11.57179,-4.96564 1.66029,-0.71549 6.15638,-2.52716 9.99137,-4.02594 3.83489,-1.49877 7.68375,-3.05748 8.55305,-3.4638 6.54902,-3.0613 12.2367,-5.58513 22.71148,-10.07803 6.64119,-2.84857 14.98888,-6.52236 18.55037,-8.16397 7.39668,-3.40937 6.28005,-3.4962 26.22738,2.0396 32.5009,9.0197 42.20369,12.01106 44.47014,13.71004 1.30701,0.97979 5.66816,6.14233 9.69142,11.47231 4.02316,5.32998 8.12198,10.55181 9.10839,11.60406 3.88128,4.14022 5.30351,7.41707 5.64261,13.00056 0.19309,3.18007 1.27733,9.8498 2.40934,14.82161 3.43732,15.09625 4.70237,26.35129 3.99459,35.53966 -1.31909,17.12174 -0.97304,29.24269 0.99326,34.79147 1.0164,2.86809 2.14842,5.51332 2.5156,5.87828 0.36728,0.36497 0.66774,6.43213 0.66774,13.48257 0,11.65267 -1.02476,19.8426 -2.98401,23.84768 -0.4035,0.825 -1.34685,3.88395 -2.09611,6.79767 -1.14852,4.46593 -2.50764,6.42623 -8.65719,12.48587 -6.52779,6.4325 -9.45515,11.00118 -7.98503,12.46222 0.43208,0.42936 14.04914,-7.46864 17.19425,-9.97276 2.10445,-1.6756 8.66887,-5.773 9.24877,-5.773 1.18022,0 8.97114,-6.83204 17.2332,-15.11209 6.18416,-6.19772 9.95897,-11.15505 14.45668,-18.98541 6.43783,-11.20804 9.36276,-14.64676 18.62975,-21.9025 3.16111,-2.475 14.77253,-13.37669 25.80316,-24.22597 11.03061,-10.84929 20.89943,-19.99211 21.93063,-20.31739 1.0313,-0.32528 1.87503,-1.01109 1.87503,-1.52403 0,-0.51293 0.62669,-0.93261 1.39263,-0.93261 1.50988,0 7.16364,-5.56582 13.71317,-13.5 2.27008,-2.75 5.00725,-5.96343 6.08263,-7.14095 1.07527,-1.17752 1.95512,-2.64002 1.95512,-3.25 0,-0.60998 0.37272,-1.10905 0.82835,-1.10905 0.45553,0 2.68595,-2.26953 4.95654,-5.0434 2.27049,-2.77387 7.21831,-7.52786 10.99501,-10.56442 3.7767,-3.03656 8.4516,-6.82852 10.3886,-8.42657 1.937,-1.59805 6.4625,-5.23333 10.0566,-8.0784 3.5941,-2.84507 6.9902,-5.71456 7.5468,-6.37665 0.5567,-0.66208 2.8233,-2.25905 5.0371,-3.54882 2.2137,-1.28976 5.8362,-3.76476 8.0499,-5.49999 2.2138,-1.73523 7.1946,-5.31824 11.0686,-7.96224 3.8741,-2.644 7.2702,-5.12076 7.5469,-5.5039 0.2766,-0.38315 2.4572,-1.91315 4.8455,-3.4 5.4157,-3.37158 8.6498,-6.46276 14.7475,-14.09561 2.6363,-3.3 11.4446,-12.525 19.5743,-20.5 8.1298,-7.975 16.5514,-16.75 18.7148,-19.5 4.946,-6.28717 5.2163,-6.46614 9.7876,-6.48469 3.5471,-0.0144 3.7734,0.16944 3.7734,3.06522 0,2.84565 -1.629,5.84696 -9.9062,18.25172 -3.1859,4.77459 -2.2855,6.62478 3.9989,8.21804 9.504,2.40941 13.491,7.87707 14.3966,19.74275 0.9238,12.10502 -2.7373,18.37517 -12.0112,20.57044 -6.725,1.59195 -20.1593,6.73831 -23.25,8.90661 -1.6018,1.12363 -4.7063,2.34834 -6.8991,2.72156 -4.1653,0.70895 -10.6037,6.24326 -10.6037,9.11474 0,1.57577 -0.882,3.12062 -7.9331,13.89361 -4.5111,6.89251 -10.5718,15.04157 -12.6433,17 -0.5818,0.55 -2.2487,2.575 -3.7043,4.5 -1.4557,1.925 -3.7197,4.65157 -5.0312,6.05904 -1.3116,1.40747 -4.6486,5.1583 -7.4158,8.33518 -2.7672,3.17688 -12.7759,13.63637 -22.2415,23.24331 -15.8533,16.09005 -17.5765,18.20044 -21.8562,26.768 -2.5554,5.11547 -5.3385,9.87201 -6.1848,10.5701 -0.8465,0.69809 -1.539,2.10212 -1.539,3.12006 0,2.18166 -4.0208,10.96371 -5.6793,12.40431 -0.64248,0.55813 -1.35561,5.19774 -1.61371,10.5 -0.33256,6.83027 -1.06943,10.81945 -2.62217,14.19514 -1.18786,2.58232 -2.15968,5.11838 -2.15968,5.63569 0,0.51731 -0.6764,2.22949 -1.50314,3.80486 -0.82682,1.57537 -1.50875,3.53931 -1.5156,4.36431 -0.01,0.825 -0.65325,2.72073 -1.4364,4.21274 -0.78326,1.49201 -1.96136,5.28498 -2.61814,8.42881 -1.3871,6.64032 -4.0308,11.04324 -8.32102,13.85845 -1.6764,1.1 -3.53976,2.9 -4.14078,4 -0.60113,1.1 -1.60838,2.33175 -2.23839,2.73723 -0.63001,0.40547 -1.42685,1.85139 -1.77079,3.21315 -0.34393,1.36176 -2.31063,5.305 -4.3706,8.76277 -3.99398,6.70434 -7.35956,12.8783 -14.87467,27.28685 l -4.69422,9 0.63465,12.5 c 0.83014,16.35516 -1.14884,72.20147 -3.09994,87.4765 -0.84142,6.58707 -2.51248,14.68707 -3.71363,18 -2.05967,5.68131 -2.16895,7.50053 -1.92303,32.0235 0.14339,14.3 0.67981,33.65 1.192,43 0.51217,9.35 1.63,29.825 2.484,45.5 0.85389,15.675 2.05514,30.97503 2.66926,34.00003 0.61411,3.025 1.32622,6.625 1.58251,8 0.25619,1.375 2.10647,6.4714 4.11181,11.3253 3.17872,7.6945 3.50696,9.2321 2.56149,12 -0.59641,1.7461 -1.63192,6.2122 -2.30108,9.9247 -0.66925,3.7125 -1.54669,6.75 -1.94979,6.75 -0.4032,0 -1.3049,1.8965 -2.00373,4.2146 -0.69883,2.318 -2.62599,6.7055 -4.28266,9.75 -1.65668,3.0444 -3.66916,7.3354 -4.47225,9.5354 -2.72238,7.4585 -3.6284,30.8284 -3.87685,100 -0.16874,46.9554 -0.61833,70.9169 -1.40722,75 -1.76686,9.1445 -2.87977,23.8725 -1.88912,25 1.00121,1.1395 17.72766,2.0074 21.33705,1.1071 1.6285,-0.4062 2.97154,-2.0186 4.24543,-5.0969 1.67791,-4.0549 2.19431,-4.5031 5.19251,-4.5065 3.18405,0 9.86046,4.1237 12.93514,7.9963 0.86949,1.0952 3.1107,1.4794 8.30451,1.4236 3.91257,-0.042 7.42707,-0.3878 7.81025,-0.7685 0.38308,-0.3807 0.95221,-2.5922 1.26474,-4.9144 0.50292,-3.7364 0.91558,-4.2831 3.58706,-4.7525 2.58734,-0.4546 3.00564,-0.956 2.92726,-3.5093 -0.15799,-5.1441 -0.28055,-13.7312 -0.29232,-20.4789 -0.0121,-6.6361 -1.22328,-12.1537 -3.84314,-17.5 -1.9021,-3.8815 -0.4185,-8.1816 3.1279,-9.0662 3.02396,-0.7543 4.7277,0.1259 3.98209,2.057 -0.74783,1.9367 1.28951,7.7781 3.71681,10.6565 4.8764,5.7832 6.2788,6.775 10.461,7.3982 5.321,0.793 7.6862,0.1356 9.4163,-2.6176 1.8364,-2.9223 -0.6136,-6.4777 -5.0373,-7.31 -4.5215,-0.8507 -9.3898,-4.8081 -8.5597,-6.958 0.7931,-2.0541 4.6902,-2.1563 7.3039,-0.1917 1.0743,0.8075 2.6392,1.4825 3.4775,1.5 0.8384,0.017 3.2139,0.9318 5.2791,2.0318 2.0651,1.1 4.655,2 5.7551,2 1.9416,0 2.0079,-0.8126 2.2677,-27.75 l 0.2675,-27.75 6.2251,-0.2961 c 5.5419,-0.2635 6.2597,-0.5379 6.5405,-2.5 0.4853,-3.3904 5.8325,-3.5533 8.9643,-0.273 1.9887,2.083 3.3667,2.5376 7.7342,2.5518 3.6569,0.012 5.4841,-0.4224 5.8586,-1.3925 0.2995,-0.7753 1.6312,-1.6808 2.9594,-2.0121 3.7899,-0.9453 6.4956,-4.5022 6.4956,-8.5393 0,-3.0592 0.5075,-3.8556 3.4656,-5.4387 3.201,-1.7132 3.5905,-1.7306 5.1031,-0.2275 0.9006,0.8951 2.0579,1.6274 2.5718,1.6274 0.5139,0 0.9344,0.8501 0.9344,1.8892 0,1.0391 0.8248,2.9015 1.8329,4.1388 1.5336,1.8822 3.1084,2.3308 9.6454,2.7477 l 7.8125,0.4983 -0.6348,3.363 -0.6348,3.363 17.044,0 c 12.7251,0 17.1577,-0.3167 17.4927,-1.25 0.2467,-0.6875 0.3083,-5.4665 0.1368,-10.62 -0.3945,-11.858 0.2398,-13.13 6.5473,-13.13 l 4.8341,0 0.6128,-58.1682 0.6129,-58.1681 5.1194,-4.9299 5.1195,-4.9299 -0.1189,-17.8646 c -0.065,-9.8255 0.1714,-18.33138 0.5262,-18.90194 0.3548,-0.57057 4.0049,-1.03739 8.1113,-1.03739 l 7.4661,0 0.2729,-19.75 0.2728,-19.75 24.2626,-0.26747 24.2626,-0.26746 3.9122,-4.40515 c 4.8195,-5.42684 7.3406,-8.49969 9.9496,-12.1273 1.1069,-1.539 5.9745,-7.75929 10.8171,-13.82287 l 8.8046,-11.02469 0,-13.1014 c 0,-8.97166 0.3965,-13.59952 1.2578,-14.68164 0.6918,-0.86914 4.4275,-3.74707 8.3015,-6.39541 3.874,-2.64834 10.5063,-7.31074 14.7384,-10.36089 4.2321,-3.05015 8.7217,-6.22072 9.9768,-7.04572 1.2552,-0.825 3.1131,-2.2875 4.1287,-3.25 1.0155,-0.9625 2.1161,-1.75 2.4458,-1.75 0.3296,0 1.9145,-0.93064 3.5219,-2.06809 2.7073,-1.91576 2.9225,-2.54188 2.9225,-8.5 l 0,-6.43191 20.7352,0 20.7352,0 7.9716,6.04238 c 4.3843,3.3233 8.6377,6.29645 9.4518,6.60698 1.2985,0.49518 1.4806,35.78638 1.4806,286.95767 l 0,286.393 -383.12644,-0.1 c -210.71956,-0.055 -381.99448,-0.4121 -380.61089,-0.7941 l 2.5156,-0.6944 0.27602,-16.1036 c 0.29261,-17.0732 0.53249,-17.9109 5.33731,-18.6362 2.38811,-0.3606 2.44224,-0.5877 2.72006,-11.4116 0.32975,-12.8439 -0.26454,-12.2598 12.06414,-11.8589 l 7.68276,0.2498 12.56553,-12.3256 12.56565,-12.3257 20.1845,-0.1183 c 11.10146,-0.065 21.54294,-0.4061 23.20323,-0.7577 l 3.01872,-0.6395 0.29161,-9.9922 c 0.46096,-15.7993 -2.18897,-20.1391 -17.39772,-28.4923 -3.32059,-1.8238 -7.92203,-4.8176 -10.22552,-6.6529 l -4.18798,-3.3369 -0.39928,-15.7551 c -0.32682,-12.8992 -0.73787,-16.3895 -2.26756,-19.2551 -1.02758,-1.925 -8.96149,-15.875 -17.63086,-31 -8.66948,-15.125 -16.0562,-28.175 -16.41513,-29 -0.35882,-0.825 -1.76686,-3.3 -3.1289,-5.5 -1.36205,-2.2 -3.53675,-6.025 -4.83268,-8.5 -1.29603,-2.475 -4.74583,-8.55 -7.66635,-13.5 -2.92042,-4.95 -5.70409,-9.675 -6.18578,-10.5 -18.8304,-32.2521 -26.17476,-46.2916 -26.17476,-50.0359 0,-4.0131 -0.95432,-6.6154 -7.50484,-20.4641 -3.55344,-7.5124 -7.75864,-16.5033 -13.32999,-28.5 -1.91569,-4.125 -4.98543,-10.65 -6.82171,-14.5 -1.83619,-3.85 -5.45182,-11.5 -8.03464,-17 -11.20048,-23.85096 -13.05529,-27.45647 -14.38533,-27.9637 -2.73869,-1.04439 -19.95005,-4.33328 -26.39785,-5.04429 -3.59732,-0.39669 -7.31738,-1.12722 -8.26688,-1.62341 -0.94949,-0.49619 -5.47757,-1.37261 -10.06241,-1.94759 -11.9942,-1.50418 -13.41804,-2.2309 -15.19576,-7.75622 -0.82542,-2.56565 -2.01681,-8.62437 -2.64742,-13.46382 -0.63062,-4.83944 -1.54589,-9.78944 -2.03402,-11 -0.48813,-1.21055 -1.40854,-6.476 -2.04529,-11.701 -0.63684,-5.225 -1.55001,-10.85 -2.02938,-12.5 -0.85894,-2.95613 -2.81214,-13.84255 -5.47225,-30.5 -3.06723,-19.20618 -5.22641,-23.43559 -9.84427,-19.28243 -1.86154,1.67425 -1.93641,2.85487 -1.44414,22.77411 0.5486,22.19873 1.20768,53.64323 2.2115,105.50835 l 0.60969,31.5 2.70266,3.9134 2.70277,3.9135 0.50312,64.6316 c 0.4668,59.9616 0.63272,64.809 2.29746,67.0865 0.98682,1.3503 2.91125,3.984 4.27652,5.8529 l 2.4822,3.3979 0,47.9119 0,47.912 5.15618,5.4182 c 5.75942,6.0519 9.55467,7.4028 15.40616,5.4836 3.11835,-1.0228 3.58746,-1.595 3.58746,-4.3765 0,-3.6085 2.40863,-7.645 4.56189,-7.645 0.78608,0 2.17087,-1.125 3.07749,-2.5 1.63132,-2.4744 3.78679,-3.0684 6.8688,-1.893 1.37322,0.5237 1.59168,3.1851 1.59168,19.393 0,16.2079 -0.21846,18.8693 -1.59168,19.393 -2.92534,1.1156 -4.92987,0.5924 -7.31858,-1.9103 -1.3033,-1.3655 -2.73015,-2.4827 -3.17088,-2.4827 -0.44063,0 -1.73626,-1.575 -2.87916,-3.5 -1.83538,-3.0914 -2.55756,-3.5 -6.18677,-3.5 -5.32261,0 -9.02559,1.9671 -12.59573,6.6911 -1.58323,2.0949 -3.12902,4.0411 -3.43491,4.3248 -0.30599,0.2838 -1.81818,1.9006 -3.36034,3.5929 l -2.804,3.077 4.04027,2.6571 c 2.22208,1.4614 4.72913,2.6571 5.57116,2.6571 0.86003,0 1.53089,0.8764 1.53089,2 0,1.5625 -0.67086,2 -3.06683,2 -3.40713,0 -8.00183,4.0616 -8.00183,7.0734 0,2.0138 4.50988,5.9266 6.83087,5.9266 0.84051,0 3.15799,-1.7544 5.14994,-3.8987 2.46671,-2.6554 4.58354,-3.9648 6.63758,-4.106 4.94105,-0.3395 5.18436,-0.061 1.81848,2.0817 -1.76545,1.1238 -4.18859,4.0526 -5.3849,6.5085 -2.41358,4.9548 -1.94778,6.3358 2.93772,8.7106 2.05938,1.0011 2.57175,1.896 2.33508,4.0789 -0.36003,3.3212 1.29554,5.625 4.04248,5.625 1.11351,0 2.20628,0.8468 2.49156,1.9308 0.66009,2.5088 2.95543,3.338 5.49749,1.9859 1.54951,-0.8241 2.41649,-0.7225 3.70237,0.434 0.92342,0.8305 3.71584,1.6539 6.20529,1.8297 3.81225,0.2692 4.57709,0.6751 4.84827,2.5729 0.1771,1.2393 -0.61028,3.4311 -1.74965,4.8706 -1.3534,1.7098 -1.86899,3.4194 -1.48733,4.9309 0.52617,2.0832 0.19944,2.345 -3.28155,2.6294 -3.64823,0.298 -3.88309,0.52 -4.17077,3.9425 -0.26837,3.1924 0.20518,4.0606 3.95453,7.25 2.34263,1.9928 4.78689,3.6233 5.43169,3.6233 0.6448,0 1.99185,0.9 2.99357,2 2.62971,2.8878 6.34546,2.6207 7.13687,-0.513 0.35742,-1.4153 0.10968,-3.1416 -0.56712,-3.952 -0.66814,-0.8002 -0.90118,-2.38 -0.52475,-3.5587 0.43147,-1.3511 0.0795,-2.7757 -0.97083,-3.9291 -1.51841,-1.6675 -1.51992,-1.9365 -0.0191,-3.4283 2.07146,-2.0587 2.69271,-2.0322 5.626,0.2397 4.26455,3.3029 8.75219,5.1404 12.66376,5.1853 2.10294,0.024 5.63464,0.6924 7.84838,1.4849 6.15648,2.2042 9.10418,1.846 12.57802,-1.5288 1.69844,-1.65 3.98935,-3 5.09078,-3 1.2248,0 2.38458,-0.9981 2.98572,-2.5693 0.71171,-1.8605 1.58875,-2.4813 3.17892,-2.25 2.09358,0.3044 2.18656,0.7521 1.99296,9.6018 -0.12085,5.5256 0.27118,10.18 0.96871,11.5 1.66795,3.1564 7.89105,9.5811 11.44207,11.8129 2.9989,1.8847 2.79584,1.8971 -30.94193,1.9009 l -33.96065,0 0,-3.5 0,-3.5 -6.57218,0 c -7.12358,0 -8.98362,1.4336 -6.6592,5.1325 1.14379,1.8201 -2.55203,1.8675 -145.74625,1.8675 l -146.91983,0 0,-15.0322 c 0,-14.6734 -0.0544,-15.0523 -2.26405,-15.8724 -1.24522,-0.462 -3.23627,-0.4763 -4.42464,-0.032 -2.10264,0.7868 -3.37373,0.3605 -3.37373,-1.1317 0,-0.404 1.56833,-1.6541 3.48512,-2.7781 6.255,-3.6676 6.5773,-5.6405 6.5773,-40.2623 l 0,-30.864 68.17287,-0.3852 c 37.49507,-0.2118 68.85208,-0.4271 69.68223,-0.4784 0.83016,-0.051 6.22712,0.2282 11.9933,0.6212 l 10.48392,0.7147 1.73265,-3 c 0.95292,-1.65 2.69139,-4.125 3.86327,-5.5 1.17187,-1.375 2.73969,-3.3593 3.484,-4.4095 1.26234,-1.781 1.50938,-1.801 3.66916,-0.2976 1.68406,1.1722 2.82231,1.3426 4.1727,0.6244 1.7089,-0.9089 1.85691,-2.5631 1.85691,-20.7525 0,-13.7853 -0.35702,-20.1196 -1.18023,-20.9377 -0.89424,-0.8887 -0.89987,-1.7841 -0.0231,-3.696 0.74119,-1.6166 0.83557,-3.363 0.26263,-4.8606 -0.52386,-1.3691 -0.52053,-2.9243 0.01,-3.754 1.24795,-1.9593 1.21625,-184.0461 -0.0333,-187.3106 -0.55765,-1.4575 -2.79001,-3.4358 -5.28277,-4.6816 -8.69181,-4.3431 -7.83903,6.531 -7.83903,-99.95647 0,-80.376 -0.21533,-94.90015 -1.42151,-95.895 -0.85491,-0.70512 -3.96319,-1.05286 -7.79838,-0.87244 l -6.37684,0.29998 -2.89195,6 c -3.37453,7.00142 -4.43461,9.38471 -8.6737,19.5 -1.72872,4.125 -3.54277,8.4 -4.0311,9.5 -0.48844,1.1 -2.29967,5.375 -4.02497,9.5 -3.97093,9.49373 -4.32322,10.30491 -7.46561,17.18807 -1.42825,3.12845 -2.59681,5.98544 -2.59681,6.34888 0,0.36343 -0.6447,2.0788 -1.43269,3.81192 -0.78788,1.73312 -2.85491,6.52613 -4.59328,10.65113 -1.73839,4.125 -3.7725,8.85 -4.52024,10.5 -0.74774,1.65 -2.56129,5.925 -4.0302,9.5 -1.46882,3.575 -3.06511,7.4 -3.5472,8.5 -0.4822,1.1 -2.2884,5.375 -4.01371,9.5 -1.72539,4.125 -3.54287,8.4 -4.03895,9.5 -1.10163,2.44256 -3.13917,7.3514 -7.67883,18.50003 -1.90361,4.675 -4.07799,9.85 -4.83197,11.5 -0.75398,1.65 -2.57427,5.925 -4.04519,9.5 -1.47082,3.575 -3.2715,7.85 -4.00142,9.5 -0.72993,1.65 -2.02557,4.575 -2.87916,6.5 -0.8536,1.925 -2.97163,6.875 -4.70659,11 -1.73507,4.125 -3.56049,8.4 -4.05657,9.5 -1.10163,2.4425 -3.13917,7.3514 -7.67883,18.5 -1.90361,4.675 -4.07799,9.85 -4.83197,11.5 -0.75398,1.65 -2.57427,5.925 -4.0452,9.5 -1.47082,3.575 -3.27743,7.85 -4.01459,9.5 -3.32251,7.4365 -5.46399,12.4984 -8.03817,19 -1.52435,3.85 -3.17922,7.7814 -3.67741,8.7364 -0.49819,0.9551 -0.90581,20.8972 -0.90581,44.3158 0,27.4386 -0.37041,43.2671 -1.04167,44.5135 -0.82903,1.5396 -2.13203,1.9343 -6.3846,1.9343 -8.88048,0 -8.6736,0.7359 -8.6736,-30.8535 l 0,-27.196 -2.42998,-0.9181 c -4.16503,-1.5738 -9.13405,0.4448 -10.38421,4.2183 -0.59207,1.7871 -2.0976,5.7243 -3.34555,8.7493 -1.24805,3.025 -2.82683,6.85 -3.50836,8.5 -0.68153,1.65 -1.57135,4.125 -1.97737,5.5 -0.40602,1.375 -1.0956,2.95 -1.5324,3.5 -0.94456,1.1894 -7.28096,17.1751 -10.6549,26.8809 -1.89032,5.438 -2.39888,9.0028 -2.42484,17 -0.0181,5.5655 -0.42594,13.1475 -0.90621,16.8489 -0.80771,6.2249 -1.25217,7.1253 -5.92305,12 -10.36288,10.8151 -9.27242,3.1056 -9.29868,65.7378 l -0.0231,55.1043 3.91005,3.964 c 2.15055,2.1803 4.40452,3.9641 5.00888,3.9641 0.60435,0 2.11672,-1.8 3.36094,-4 1.24422,-2.2 2.75147,-4 3.34958,-4 0.59811,0 2.87453,-0.9519 5.05878,-2.1153 2.43541,-1.2972 4.10959,-1.7034 4.32865,-1.0502 0.97484,2.9064 4.42364,5.9155 6.77986,5.9155 3.81325,0 4.32935,1.1715 1.49325,3.3897 -6.09017,4.7635 -6.03744,4.673 -6.03744,10.3505 l 0,5.5098 -331.60221,0 -331.60219,0 0.66069,-3.5 c 0.77018,-4.0798 -1.09026,-4.8992 -2.53703,-1.1175 -0.62891,1.644 -1.94678,2.5518 -4.25157,2.9286 -1.8371,0.3004 -4.59078,0.8568 -6.11936,1.2364 l -2.77914,0.6902 0.0393,-64.1751 z m 303.89512,55.3723 c 0.53965,-1.4108 0.9813,-6.9807 0.9813,-12.3776 0,-11.3269 -1.08504,-13.4237 -5.68104,-10.9793 -1.42656,0.7588 -2.94397,2.2891 -3.37212,3.4008 -0.42806,1.1116 -1.77783,2.9162 -2.9995,4.01 -4.77392,4.2746 -4.43703,6.6579 2.20316,15.5835 2.89415,3.8904 7.44729,4.0765 8.8682,0.3626 z m -37.60385,-13.9349 c 1.98683,-0.825 4.60326,-1.5 5.81417,-1.5 1.21091,0 3.53292,-1.2874 5.15991,-2.8608 1.62698,-1.5735 4.00333,-3.1871 5.28065,-3.5859 1.76223,-0.5501 2.24774,-1.3425 2.01248,-3.2847 -0.26032,-2.1493 -1.11662,-2.7698 -5.34122,-3.87 -5.62218,-1.4642 -11.49722,-1.7462 -13.19707,-0.6333 -0.61723,0.4041 -1.44013,1.7472 -1.82875,2.9847 -0.51026,1.6248 -1.4832,2.25 -3.50152,2.25 -3.2415,0 -6.45795,3.0464 -5.95523,5.6404 0.28205,1.4555 6.10999,6.3596 7.55758,6.3596 0.21262,0 2.01218,-0.675 3.999,-1.5 z m 690.83721,-14.9151 c 2.13857,-0.472 2.86508,-1.3529 3.38439,-4.1039 0.78658,-4.1672 -0.743,-6.481 -4.28437,-6.481 -2.69582,0 -6.43381,1.6735 -7.59361,3.3997 -2.41075,3.5881 0.46036,9.0825 4.26114,8.1547 0.83015,-0.2027 2.73476,-0.639 4.23245,-0.9695 z m 335.01487,-22.57 c 2.29241,-0.053 0.74451,-11.3401 -3.15627,-23.0149 -1.01068,-3.025 -2.34164,-7.3866 -2.95765,-9.6924 -0.62528,-2.3406 -2.77653,-5.9507 -4.87021,-8.1733 -2.0627,-2.1895 -4.53242,-4.9945 -5.48844,-6.2331 -1.66031,-2.1514 -1.82472,-2.1743 -3.6737,-0.5113 -1.0646,0.9575 -2.23597,3.3317 -2.60304,5.2762 -0.36708,1.9444 -1.27028,4.9525 -2.00725,6.6846 -0.73697,1.7321 -1.83991,5.5118 -2.45101,8.3993 -0.61109,2.8875 -1.63292,7.4012 -2.27078,10.0304 -1.4991,6.1795 -0.47122,11.3657 2.95272,14.898 2.93771,3.0306 1.58945,2.9119 26.52563,2.3365 z m -985.37107,-15.9916 c -0.14611,-2.7371 0.0463,-5.2871 0.42855,-5.6666 0.38187,-0.3795 0.69431,-4.9425 0.69431,-10.14 0,-9.189 -0.0604,-9.4344 -2.17207,-8.8855 -1.33157,0.3461 -3.11563,-0.1732 -4.6107,-1.3419 -1.61361,-1.2614 -3.35491,-1.7243 -5.14643,-1.3683 -1.94003,0.3856 -3.24432,-0.051 -4.60134,-1.5414 -2.06762,-2.2705 -2.10083,-2.2522 4.45564,-2.4459 4.33046,-0.1279 4.52808,-0.2646 4.52808,-3.1337 0,-2.6489 -0.37985,-3.0365 -3.24583,-3.3115 -2.20951,-0.2121 -3.90461,-1.2309 -5.30893,-3.1909 -1.13474,-1.5836 -2.87774,-3.1363 -3.87343,-3.4503 -1.33246,-0.4203 -1.69943,-1.3214 -1.39041,-3.4141 0.32078,-2.1719 -0.20508,-3.3316 -2.22783,-4.9127 l -2.64763,-2.0698 2.14632,-1.9872 c 2.84666,-2.6356 9.00093,-14.6732 9.00093,-17.6055 0,-1.4684 -1.26867,-3.2823 -3.45473,-4.9393 -5.43743,-4.1216 -14.99762,-3.2663 -18.06606,1.6164 -0.82421,1.3115 -0.67418,2.532 0.61471,5 2.33569,4.4727 3.1258,9.7668 1.92555,12.904 -1.12458,2.9394 0.84212,6.8609 3.44084,6.8609 0.91981,0 1.45232,1.0267 1.45232,2.8 0,3.2342 1.61491,5.2 4.27179,5.2 1.56249,0 1.75629,0.5328 1.22249,3.3605 -0.54056,2.8634 -0.22692,3.679 2.12054,5.514 3.37312,2.6369 2.59248,3.6328 -2.55806,3.2632 -4.68164,-0.3359 -8.0755,1.2465 -8.0755,3.7654 0,3.068 11.53798,10.8358 17.25604,11.6174 5.18225,0.7083 6.82544,1.9474 4.99489,3.7666 -0.61593,0.6121 -1.11985,2.3285 -1.11985,3.8141 0,2.0416 0.88489,3.2201 3.62347,4.8259 3.04007,1.7825 3.42123,2.3667 2.36769,3.6284 -1.598,1.9134 0.2406,6.4445 2.61492,6.4445 1.29041,0 1.55334,-0.9768 1.33972,-4.9767 z m 548.51831,-20.1631 c 0,-1.9637 -2.46982,-4.7523 -4.27653,-4.8284 -0.41508,-0.017 -0.75468,1.5432 -0.75468,3.4682 0,3.0667 0.31143,3.5 2.5156,3.5 1.89958,0 2.51561,-0.524 2.51561,-2.1398 z m -663.58909,-6.904 c 0.92383,-1.4856 -1.40643,-3.9431 -3.11956,-3.2898 -2.20558,0.8411 -1.78869,4.3336 0.51732,4.3336 1.07416,0 2.24523,-0.4697 2.60224,-1.0438 z m 63.34432,-42.5776 c 1.96126,-1.9491 1.66694,-4.2643 -0.73304,-5.7663 -3.48653,-2.182 -7.41259,2.7349 -4.7395,5.9357 1.58382,1.8967 3.45181,1.8389 5.47254,-0.1694 z m 648.82018,-2.1266 c 1.47072,-1.3228 3.81586,-1.7696 9.63848,-1.8364 6.10407,-0.07 8.47508,-0.556 11.46834,-2.3507 2.07538,-1.2443 3.77341,-3.028 3.77341,-3.9637 0,-3.3433 -2.18777,-4.1012 -11.83914,-4.1012 -13.20421,0 -13.3169,-0.093 -13.3169,-11 0,-10.1297 0.62518,-11 7.90151,-11 6.45806,0 7.19212,-0.6173 7.19212,-6.048 0,-2.7764 -0.53543,-5.1725 -1.25782,-5.6292 -1.92714,-1.2184 -17.06384,-2.1492 -19.6217,-1.2066 -2.25579,0.8312 -2.26404,0.9166 -2.26404,23.2876 0,19.0788 0.23766,22.6895 1.5812,24.0248 2.0625,2.0497 4.33529,1.9902 6.74454,-0.1766 z m -877.34711,-5.1074 c 1.81908,-1.9976 1.36224,-4.6532 -0.95231,-5.5359 -1.94658,-0.7423 -4.16705,0.2154 -4.8999,2.1132 -0.56692,1.4684 1.93652,5.2781 3.46832,5.2781 0.38186,0 1.45462,-0.8349 2.38389,-1.8554 z m 247.25983,-6.4298 c 3.61542,-2.4213 4.49548,-4.3363 3.0319,-6.5966 -2.12054,-3.2747 -12.18387,1.405 -12.18387,5.6658 0,3.7342 4.31135,4.1727 9.15197,0.9308 z m -256.88031,-4.3789 c 0.21262,-1.4832 -0.35661,-2.3744 -1.80923,-2.8326 -3.51781,-1.1096 -7.0938,3.4769 -3.78376,4.8529 2.61512,1.0871 5.28588,0.1224 5.59299,-2.0203 z m 286.63689,-0.9996 c -0.67248,-4.1181 -1.97677,-5.8886 -3.60245,-4.8902 -1.75972,1.0809 -1.2903,6.3408 0.66703,7.4738 2.9817,1.7259 3.55647,1.22 2.93542,-2.5836 z m -60.08561,-5.7813 c 0.66372,-0.7947 1.05876,-2.4822 0.87794,-3.75 -0.27459,-1.9246 -1.07607,-2.3875 -4.85692,-2.805 -4.00454,-0.4422 -4.56391,-0.8082 -4.83831,-3.1654 -0.44215,-3.7994 -2.87766,-4.2958 -5.78428,-1.1789 -1.35219,1.45 -2.45856,2.9838 -2.45856,3.4085 0,2.0327 1.3853,3.9375 2.87484,3.9531 0.90924,0.01 2.71957,1.1345 4.02295,2.5 2.69532,2.8239 8.20118,3.3862 10.16234,1.0377 z m 40.09852,-1.6773 c 0.35783,-3.0659 -1.95945,-4.4066 -4.90693,-2.8389 -2.177,1.1578 -2.60767,4.5168 -0.68183,5.3174 2.87745,1.1962 5.28458,0.1287 5.58876,-2.4785 z m -85.33341,-12.3777 c 0,-0.825 -0.67921,-1.5 -1.50936,-1.5 -0.83016,0 -1.50937,0.675 -1.50937,1.5 0,0.825 0.67921,1.5 1.50937,1.5 0.83015,0 1.50936,-0.675 1.50936,-1.5 z m 93.37923,-11.7 c 1.96046,-1.9483 1.48863,-6.5765 -0.74201,-7.2801 -2.50192,-0.7892 -6.10044,1.4305 -6.10044,3.7629 0,3.8317 4.30118,6.0427 6.84245,3.5172 z m 4.22621,-22.769 c 0,-1.6469 -5.07136,-6.031 -6.97648,-6.031 -2.19682,0 -3.77108,3.7833 -2.71362,6.5218 0.96578,2.5013 4.84464,3.4033 7.42082,1.7258 1.24815,-0.8127 2.26928,-1.8102 2.26928,-2.2166 z m -71.62298,-10.031 c 0.17781,-1.925 0.74382,-3.9275 1.25781,-4.45 1.44527,-1.4692 1.10827,-3.2697 -0.74412,-3.9762 -2.17791,-0.8305 -8.3838,5.0337 -8.3838,7.9224 0,2.9107 2.02757,4.6448 5.02416,4.2968 2.08071,-0.2417 2.5793,-0.9062 2.84595,-3.793 z m -12.90132,-7.5 c 0.68898,-0.825 2.63967,-1.5 4.33489,-1.5 3.01188,0 7.74001,-3.2742 7.74001,-5.3599 0,-0.5561 0.96196,-2.0288 2.13776,-3.2726 1.86537,-1.9733 2.32321,-2.0771 3.59369,-0.8145 1.87111,1.8595 5.42274,1.85 7.91208,-0.021 2.79212,-2.0988 6.4813,-1.9589 6.4813,0.2457 0,2.8261 2.93209,6.2254 5.33982,6.1907 3.62671,-0.052 5.72885,-2.3438 5.72885,-6.245 0,-2.6782 0.6464,-4.0244 2.61773,-5.4515 l 2.61783,-1.8951 -5.88812,-5.5325 c -3.23839,-3.0429 -9.51048,-8.8176 -13.93795,-12.8326 -4.42747,-4.015 -8.41208,-7.9101 -8.85462,-8.6558 -0.44255,-0.7456 -1.26425,-1.3557 -1.82593,-1.3557 -0.56158,0 -2.16423,-1.35 -3.5613,-3 -2.7267,-3.2205 -6.08726,-3.9376 -7.02849,-1.5 -0.31858,0.825 -1.13102,1.5 -1.80549,1.5 -2.17792,0 -5.8356,4.6972 -5.19,6.6649 0.36899,1.1244 3.81566,3.1704 8.8996,5.2828 8.83068,3.6691 14.2038,7.9259 13.63146,10.7993 -0.25206,1.2651 -1.32301,1.7562 -3.84777,1.7645 -1.92423,0.01 -4.05847,0.3667 -4.74293,0.8008 -0.68434,0.434 -2.94838,0.3188 -5.0312,-0.256 -2.08272,-0.5748 -5.91096,-1.0477 -8.50717,-1.0507 -5.26485,-0.01 -6.49187,-1.0037 -4.71434,-3.8325 1.82281,-2.9006 0.40119,-5.366 -2.87755,-4.9901 -3.56672,0.409 -4.15155,3.271 -1.28749,6.3007 1.40562,1.4869 1.79383,2.542 1.09359,2.9721 -0.59711,0.3667 -0.81043,1.7562 -0.47415,3.0876 0.44105,1.7465 -0.11853,3.283 -2.00885,5.5155 -1.47736,1.7449 -2.62016,4.3338 -2.62016,5.936 0,1.5629 -0.25056,3.4903 -0.55675,4.2833 -0.3062,0.793 0.63966,2.8548 2.10194,4.5818 2.9673,3.5046 8.28136,4.3322 10.52971,1.64 z m 944.3294,-23.7456 c 0.64339,-12.5154 0.0403,-22.4613 -2.46891,-40.733 -1.26023,-9.1755 -3.55525,-11.987 -10.41209,-12.755 -4.08102,-0.4572 -5.13214,-0.1219 -9.42617,3.0067 -2.65809,1.9368 -6.75741,4.0349 -9.1095,4.6627 -5.75712,1.5364 -5.61937,3.5108 1.00624,14.429 2.90551,4.7879 5.7401,9.4771 6.29907,10.4203 14.8479,25.0555 21.57594,35.3626 22.6517,34.7018 0.42806,-0.2629 1.08494,-6.4425 1.45966,-13.7325 z m -584.87725,-7.0044 0.27923,-14.25 39.47286,-0.2616 39.47294,-0.2616 0.52858,2.2616 c 0.2908,1.2439 0.64037,7.2116 0.77682,13.2616 l 0.24814,11 3.65245,-7.5 c 2.00897,-4.125 4.33841,-9.075 5.17661,-11 2.70086,-6.2025 8.9312,-20.126 12.52922,-28 2.36225,-5.1697 3.55656,-7.8244 8.21053,-18.25 1.04347,-2.3375 3.53392,-7.7547 5.53433,-12.0382 2.0004,-4.2835 3.63716,-8.0532 3.63716,-8.3771 0,-0.3239 1.54025,-3.7942 3.42273,-7.7118 1.88258,-3.9176 7.62872,-16.5729 12.76941,-28.1229 5.14058,-11.55 9.93693,-22.125 10.65841,-23.5 0.72148,-1.375 1.31456,-2.8203 1.31797,-3.2119 0,-0.3915 1.643,-4.2165 3.6434,-8.5 2.00042,-4.2834 4.44025,-9.58811 5.42194,-11.78811 0.98158,-2.2 2.9674,-6.55963 4.41277,-9.68807 1.44537,-3.12845 2.628,-5.9044 2.628,-6.1688 0,-0.26439 2.07407,-4.90476 4.60899,-10.31192 2.53503,-5.40717 5.19815,-11.18121 5.91811,-12.83121 2.96067,-6.78523 4.98401,-11.31297 7.59683,-17 3.38177,-7.36052 6.00041,-13.17237 12.95424,-28.75 1.04348,-2.3375 3.53392,-7.75467 5.53434,-12.03816 2.00041,-4.28348 3.63716,-8.02067 3.63716,-8.30486 0,-0.49538 2.12256,-5.36027 6.06754,-13.90698 1.01549,-2.2 3.68818,-7.98164 5.93934,-12.8481 2.25116,-4.86645 4.09298,-9.0966 4.09298,-9.40032 0,-0.60327 4.42364,-10.24809 6.53655,-14.25158 3.67419,-6.96177 4.46358,-13.24038 4.39244,-34.93716 -0.0634,-19.51627 0.0915,-21.5548 1.73637,-22.75 1.35743,-0.98638 7.12973,-1.31284 23.21309,-1.31284 20.13419,0 21.46847,-0.11497 22.44815,-1.93426 0.58906,-1.09381 1.04166,-8.64444 1.04166,-17.37755 0,-12.52149 -0.28618,-15.67931 -1.51248,-16.69075 -2.29836,-1.89564 -6.37887,-1.49417 -8.91913,0.87756 -2.57346,2.40258 -10.43875,2.98411 -12.5107,0.925 -1.5145,-1.50513 -1.64943,-20.11076 -0.16583,-22.86574 0.89254,-1.6574 2.16,-1.93426 8.85492,-1.93426 4.73538,0 8.28892,-0.47272 9.02076,-1.2 0.70418,-0.69979 1.2075,-4.05578 1.2075,-8.05103 0,-6.83768 -0.01,-6.85377 -3.3998,-8.26274 -1.8699,-0.77644 -3.68112,-2.14029 -4.02496,-3.03076 -0.34383,-0.89048 -0.62518,-6.21724 -0.62518,-11.83726 0,-6.61416 -0.42584,-10.64146 -1.20749,-11.41821 -0.84765,-0.84242 -6.48463,-1.2 -18.91735,-1.2 -12.43272,0 -18.06968,-0.35758 -18.91733,-1.2 -1.27159,-1.26368 -1.76696,-23.1874 -0.59268,-26.22854 0.33809,-0.87567 4.52658,-4.13898 9.30773,-7.25181 59.17928,-38.52967 55.43808,-35.85793 55.65392,-39.7445 0.21182,-3.81409 -0.25236,-11.95193 -0.7088,-12.42715 -0.18595,-0.1936 -1.37372,0.3689 -2.63946,1.25 -1.74724,1.21619 -4.78358,1.602 -12.60772,1.602 -9.15961,0 -10.42214,-0.21519 -11.34788,-1.93426 -1.5467,-2.87197 -1.26143,-9.30893 0.52475,-11.84323 1.54871,-2.19738 1.85511,-2.22251 27.09668,-2.22251 29.14387,0 28.70224,0.12045 28.67899,-7.82143 -0.0261,-8.92648 -1.81315,-11.24995 -5.52064,-7.17857 -2.60436,2.85993 -13.025,2.907 -14.55509,0.0657 -1.31797,-2.44734 -1.35811,-14.10826 -0.0604,-17.50064 0.90985,-2.37839 1.44094,-2.56464 7.29525,-2.55878 5.95716,0.006 6.41077,0.1755 8.028,3 2.98945,5.22091 7.85733,3.38292 7.82976,-2.95632 -0.0191,-4.30938 -0.21755,-4.60336 -6.48391,-9.58391 -2.74453,-2.18135 -5.80099,-4.75359 -6.79214,-5.71609 -0.99114,-0.9625 -2.22258,-1.75 -2.73647,-1.75 -0.51399,0 -1.53281,-0.57849 -2.26404,-1.28553 -0.73133,-0.70705 -3.58303,-2.84455 -6.33711,-4.75 -2.75409,-1.90546 -5.47093,-3.81547 -6.03745,-4.24447 -0.56652,-0.429 -3.97334,-3.01247 -7.57066,-5.74106 -3.59732,-2.72858 -7.10658,-4.96508 -7.79837,-4.97 -0.6918,-0.005 -1.2578,-0.4589 -1.2578,-1.0089 0,-1.45395 -4.78911,-1.22437 -7.89468,0.37845 -8.40986,4.34039 -22.31421,10.62155 -23.51244,10.62155 -0.76807,0 -1.82653,0.40815 -2.3523,0.90701 -1.15717,1.09793 -35.59861,18.88337 -44.72744,23.09704 -0.83014,0.38319 -4.22621,2.06974 -7.54681,3.74791 -3.32059,1.67817 -7.84868,3.83065 -10.06241,4.78328 -5.31356,2.2866 -22.47028,10.24338 -25.65916,11.89998 -1.38359,0.71877 -4.32684,1.87353 -6.54058,2.56614 -2.21373,0.69261 -4.47777,1.59609 -5.0312,2.00775 -0.55344,0.41165 -4.01662,1.74826 -7.69594,2.97024 -6.52074,2.16568 -6.83832,2.17913 -12.57802,0.53276 -6.94769,-1.99288 -10.86751,-4.23137 -18.77012,-10.7192 -3.21102,-2.6361 -6.74676,-4.79291 -7.85715,-4.79291 -1.11048,0 -3.85722,2.00719 -6.10375,4.46042 -4.6107,5.03479 -9.14051,7.65173 -16.30938,9.42223 -5.30188,1.30942 -11.68749,4.26439 -15.71306,7.27131 -1.38358,1.03348 -3.58403,2.65913 -4.88983,3.61255 -3.92827,2.86806 -16.63619,15.43196 -20.33151,20.10095 -1.9011,2.4021 -3.90936,4.88821 -4.46278,5.52469 -0.55344,0.63648 -2.5788,3.17112 -4.50072,5.63254 -4.18628,5.36121 -1.79775,2.37498 -20.77537,25.97531 -8.624194,10.725 -17.408784,21.525 -19.521388,24 -2.112504,2.475 -5.741112,6.75 -8.063517,9.5 -16.31792,19.32232 -28.917573,31.81296 -35.403304,35.09685 -3.765256,1.90651 -6.310343,2.40315 -12.315191,2.40315 -7.452125,0 -19.9876811,-2.63906 -26.2069588,-5.51723 -12.5583987,-5.81183 -19.0588212,-8.48277 -20.6448582,-8.48277 -3.277431,0 -9.096425,14.38205 -12.732983,31.47063 -4.204982,19.76 -5.576993,27.20647 -7.375449,40.02937 -1.079897,7.7 -2.487328,16.475 -3.127499,19.5 -0.786478,3.71628 -1.395758,31.28292 -1.878653,85 -0.804389,89.47226 -0.303281,83.75434 -9.070263,103.5 -0.488429,1.1 -3.227016,7.4 -6.085749,14 -2.858732,6.6 -6.519943,14.83421 -8.135967,18.29831 -1.616024,3.4641 -3.643198,8.1891 -4.504842,10.5 -10.668074,28.6132 -10.547526,34.1635 1.136549,52.3153 1.920715,2.9839 3.492161,5.6199 3.492161,5.8579 0,1.4041 9.440963,13.5285 10.534244,13.5285 0.727412,0 1.585535,-1.0417 1.90713,-2.3149 0.526566,-2.0849 1.136248,-2.306 6.13576,-2.225 3.790109,0.061 6.094101,0.6295 7.26285,1.791 2.138867,2.1256 1.577586,2.695 -3.326433,3.3747 -6.045199,0.8379 -9.432409,2.4212 -9.432409,4.4089 0,2.7307 11.582948,17.6611 15.106102,19.4717 4.453022,2.2885 6.847776,1.2017 7.225016,-3.2791 l 0.309319,-3.6743 1.930072,2.9448 c 2.554545,3.8977 3.476364,12.5022 1.339408,12.5022 -0.833067,0 -2.168652,-0.9788 -2.967909,-2.1752 -1.81345,-2.7142 -4.831369,-1.8425 -4.825532,1.3938 0,1.2548 1.551725,4.7564 3.443056,7.7814 1.891433,3.025 5.849786,10.1125 8.796464,15.75 l 5.357633,10.25 31.221061,0 31.221062,0 8.002741,8 8.00274,8 19.366127,0 19.36612,0 0.27913,-14.25 z m 347.707,-2.5884 c 0.97938,-0.6176 1.21615,-5.2614 1.00624,-19.7347 l -0.27439,-18.9269 -4.02498,-1 c -2.21373,-0.55 -4.59098,-1.3641 -5.28277,-1.809 -0.99446,-0.6397 -1.26071,-25.6575 -1.27148,-119.50003 -0.01,-65.28004 -0.28677,-119.70348 -0.62055,-120.94098 -0.56772,-2.1055 -1.14621,-2.25 -9.00697,-2.25 -7.66022,0 -8.50616,0.19656 -9.60166,2.23078 -1.17669,2.18509 -1.08251,16.24871 0.76917,114.76922 0.25328,13.475 0.77773,56.35421 1.16563,95.28711 0.61069,61.3158 0.90703,70.9139 2.21444,71.7347 1.83568,1.1525 23.13239,1.272 24.92732,0.1398 z m 228.60884,-82.5933 c 0.94447,-1.7538 1.12629,-4.7507 0.65215,-10.75 -1.95684,-24.7649 -2.01027,-23.6447 1.54015,-32.3183 l 3.27462,-8 0.81475,-33.00001 c 0.44818,-18.15 0.90209,-34.69357 1.00886,-36.76348 0.20506,-3.97729 -2.13857,-7.5242 -4.15376,-6.28646 -1.73819,1.06757 -3.66484,6.38674 -5.08918,14.04994 -0.71554,3.85 -1.86557,8.125 -2.55565,9.5 -0.69008,1.375 -1.57477,4.525 -1.9659,7 -1.43559,9.08283 -9.20671,35.72351 -15.16858,52.00001 -1.08413,2.9598 -1.51339,6.5536 -1.25409,10.5 0.33811,5.1465 1.25932,7.4936 6.47578,16.5 3.34494,5.775 7.13808,12.6375 8.42928,15.25 2.70016,5.4635 5.81165,6.3661 7.99157,2.3183 z M 471.44569,733.4947 c 1.1283,-2.92193 0.66966,-32.43801 -0.53975,-34.73395 -1.99306,-3.78401 -15.07339,-19.67877 -16.29628,-19.80274 -2.52487,-0.25598 -4.33701,0.35975 -7.96079,2.70488 -5.44306,3.52251 -5.30429,7.27294 0.7738,20.9136 0.73526,1.65 2.76485,6.375 4.51018,10.5 1.74533,4.125 4.04399,9.4076 5.10799,11.7391 1.0639,2.33151 1.9345,4.48484 1.9345,4.78518 0,0.30035 0.73133,1.65525 1.62508,3.0109 1.30811,1.98397 2.46488,2.46482 5.92978,2.46482 2.99709,0 4.49025,-0.48049 4.91549,-1.58179 z M -435.71123,604.32649 c 0.5167,-0.9625 2.38228,-6.025 4.14581,-11.25 1.76355,-5.225 3.62087,-9.9275 4.12731,-10.45 0.50644,-0.5225 0.92081,-1.7028 0.92081,-2.62288 0,-0.92009 0.92916,-3.76027 2.0647,-6.31153 2.20368,-4.95096 1.94949,-6.61559 -1.01016,-6.61559 -1.91467,0 -3.06702,1.86343 -3.06702,4.95934 0,0.98768 -0.67921,2.35597 -1.50937,3.04066 -0.83015,0.68469 -1.50936,2.53979 -1.50936,4.12244 0,3.26668 -1.47746,3.66868 -4.26606,1.16073 -1.7254,-1.55177 -2.16835,-1.57277 -4.60728,-0.21846 -1.71443,0.952 -2.81637,2.5081 -3.02175,4.26741 -0.31273,2.67874 -0.46891,2.74734 -4.78879,2.10355 -5.36428,-0.79942 -7.46592,0.54517 -7.46592,4.77648 0,1.83365 -0.83005,3.6352 -2.17257,4.71561 -2.23738,1.80047 -1.85159,4.07224 0.69158,4.07224 0.78044,0 3.21193,0.92871 5.40322,2.06379 2.19129,1.13509 5.43662,2.24648 7.21193,2.46976 1.77532,0.22328 3.46792,0.64457 3.76134,0.93621 1.16674,1.15955 4.20518,0.43166 5.09158,-1.21976 z m 12.27876,-49.28518 c 3.91328,-2.0813 1.64078,-6.60901 -4.47737,-8.92068 -6.67169,-2.52083 -9.18035,2.66835 -3.56149,7.36697 3.36889,2.81713 5.05183,3.1424 8.03886,1.55371 z m 11.78581,-15.71482 c 0.56511,-1.5125 2.02999,-5.45 3.25539,-8.75 1.22531,-3.3 2.85562,-7.41801 3.62268,-9.15113 0.76716,-1.73312 1.39485,-3.46511 1.39485,-3.84887 0,-0.38376 0.65687,-2.11575 1.45975,-3.84887 1.37795,-2.97452 3.22923,-7.58394 7.68567,-19.13701 2.22521,-5.7687 2.23577,-5.82409 0.95795,-5.03926 -0.5309,0.32609 -1.89094,0.0184 -3.02225,-0.68369 -3.04689,-1.89105 -5.64391,0.11125 -5.31637,4.09908 0.19691,2.39813 -0.14842,3.10663 -1.50936,3.0961 -3.66605,-0.0284 -6.08385,-1.23515 -7.15489,-3.5711 -1.37101,-2.99047 -4.45705,-3.123 -6.36105,-0.27319 -1.22299,1.83042 -1.75318,1.97079 -3.64462,0.96482 -3.06451,-1.62993 -2.78155,-3.16736 1.30842,-7.10688 2.61834,-2.52205 3.52184,-4.23559 3.52184,-6.67932 0,-2.93696 -0.53219,-3.555 -4.9978,-5.80383 -5.72612,-2.88366 -9.28539,-3.19227 -11.14432,-0.96629 -0.83116,0.99527 -2.56018,1.44293 -4.82804,1.25 -2.72582,-0.23187 -3.91228,-0.98613 -5.19192,-3.30056 -2.1932,-3.96684 -5.8357,-4.40697 -8.97638,-1.08463 -2.15254,2.27709 -2.25166,2.78844 -1.08382,5.59054 0.9996,2.39824 1.02265,3.65754 0.10374,5.66198 -1.73526,3.78473 0.6923,6.97582 6.11785,8.04211 l 4.24735,0.83474 1.13414,6.23259 c 1.71534,9.42609 7.90281,14.67771 14.57138,12.36746 4.56018,-1.57985 5.05104,0.98484 1.11894,5.84742 -2.70578,3.34609 -3.14601,4.6957 -3.14601,9.64443 0,4.88183 0.40984,6.17902 2.70387,8.55864 1.48713,1.5426 3.27531,2.80472 3.97374,2.80472 0.69844,0 2.47868,1.575 3.95615,3.5 3.23858,4.21969 3.91085,4.31585 5.24312,0.75 z m 587.89074,-15.00574 c 2.98058,-3.76575 2.56612,-7.90682 -1.13534,-11.34305 -1.71877,-1.59567 -3.47838,-2.90121 -3.91025,-2.90121 -1.68677,0 -3.9161,-6.98909 -5.58213,-17.5 -0.95896,-6.05 -2.24795,-11.54552 -2.86447,-12.21226 -1.60204,-1.73251 -8.32323,4.52653 -13.60288,12.66753 -5.5629,8.57783 -5.86086,10.17768 -3.05063,16.38165 4.71586,10.41097 11.42357,16.46102 19.55752,17.64005 5.69653,0.82572 8.30441,0.15267 10.58818,-2.73271 z m -632.55167,-1.33997 c 2.64743,-2.06949 3.5791,-2.03525 6.76154,0.24849 1.99025,1.42822 4.9164,0.46319 4.9164,-1.6214 0,-1.62149 -3.44216,-5.53138 -4.86971,-5.53138 -0.46458,0 -1.36054,-1.125 -1.99085,-2.5 -0.89596,-1.95419 -1.89424,-2.5 -4.57256,-2.5 -2.71725,0 -4.17459,0.82312 -7.04228,3.97764 -3.74252,4.11675 -3.94185,6.26728 -0.81335,8.77236 2.24936,1.80113 4.55234,1.54523 7.61081,-0.84571 z m 58.80778,-44.78269 c 0.7402,-0.46628 1.193,-1.92189 1.00625,-3.23469 -0.24502,-1.72198 -1.07467,-2.47162 -2.97828,-2.69101 -3.08503,-0.35555 -4.43411,1.94734 -2.85662,4.87654 1.11371,2.0682 2.67309,2.407 4.82865,1.04916 z m 13.18036,-8.1947 c 2.57114,-5.93971 2.39535,-8.30724 -0.64873,-8.73969 -4.3525,-0.6183 -6.33067,1.45902 -6.33067,6.64797 0,4.67617 1.25016,7.16482 3.59924,7.16482 0.65124,0 2.17236,-2.2829 3.38016,-5.0731 z m -18.26168,-1.43416 c 0.47364,-3.28309 -2.08422,-5.88936 -5.05314,-5.14883 -2.87936,0.7182 -4.13515,2.99801 -3.2236,5.85227 0.88791,2.78032 7.85975,2.18779 8.27674,-0.70344 z m -16.89248,-9.99274 c 0,-0.825 -0.65245,-1.5 -1.45,-1.5 -1.68102,0 -2.81586,1.42728 -1.87674,2.36052 1.20257,1.19516 3.32674,0.64571 3.32674,-0.86052 z m 40.30803,-2.34584 c 3.09741,-2.49264 3.23295,-4.67123 0.38469,-6.18611 -1.97787,-1.05194 -2.78297,-0.98487 -4.92556,0.41029 -2.81757,1.83474 -3.07517,2.79871 -1.51953,5.6874 1.30671,2.42641 3.12207,2.4529 6.0604,0.0884 z m -10.13145,-9.64143 c 1.88752,-2.26012 0.46318,-4.51273 -2.8533,-4.51273 -3.30902,0 -5.70106,2.22367 -4.82704,4.48727 0.75619,1.95817 6.05174,1.97573 7.68034,0.0255 z m 15.71226,-15.2419 c -1.02284,-1.01651 -1.86687,0.51389 -1.02767,1.86338 0.63403,1.01942 0.871,1.02021 1.21192,0.004 0.23294,-0.69479 0.15013,-1.53513 -0.18425,-1.86742 z m 28.87038,-33.67034 c 3.79816,-4.10842 9.76508,-12.36238 9.76508,-13.50788 0,-2.10461 -3.0776,-1.069 -4.00173,1.34659 -1.24371,3.25105 -4.62861,4.99183 -9.83923,5.06023 -3.2574,0.0427 -4.92777,0.69833 -6.9826,2.74044 -2.64029,2.62385 -2.65931,2.73009 -0.84516,4.72218 2.70358,2.96888 9.00154,2.77758 11.90364,-0.36156 z m -15.40163,-19.08776 c 1.92856,-2.3093 0.45975,-4.51273 -3.00805,-4.51273 -3.78167,0 -5.20922,2.66624 -2.48673,4.64461 2.40945,1.75096 3.95342,1.71391 5.49478,-0.13188 z m 31.61471,-2.01273 c 1.5974,-2.42281 1.57517,-2.5 -0.72278,-2.5 -3.00474,0 -3.62117,0.63195 -2.98281,3.0579 0.68484,2.60263 1.7251,2.44601 3.70559,-0.5579 z M -340.5568,364.1524 c 2.20146,-2.28359 2.91659,-4.12474 3.26475,-8.40551 0.24512,-3.01479 0.0373,-5.73208 -0.46115,-6.03842 -2.02819,-1.24574 -8.15327,1.53393 -10.7043,4.85786 -2.59459,3.38049 -3.67027,8.96673 -2.18626,11.35304 1.43248,2.30349 7.12399,1.30649 10.08696,-1.76697 z m 25.82207,-4.69665 c 2.29806,-3.09141 5.06693,-6.50391 6.15308,-7.58333 3.60436,-3.58205 1.04458,-3.01996 -2.84314,0.6243 -2.10043,1.96887 -4.19573,3.57977 -4.65628,3.57977 -0.46056,0 -2.17751,0.98463 -3.81537,2.18806 -2.81718,2.06994 -3.79293,4.66874 -2.30711,6.14527 1.60878,1.5988 3.55968,0.30477 7.46882,-4.95407 z m -61.29812,-26.03425 c 1.03955,-0.93502 1.84011,-3.02315 1.84011,-4.8 0,-5.57233 -3.71001,-7.15225 -8.32453,-3.54501 -1.40713,1.1 -3.26345,2 -4.12519,2 -1.85159,0 -4.02748,3.5842 -3.09057,5.09074 1.86295,2.99566 10.8492,3.81836 13.70018,1.25427 z m -36.41367,-0.83481 c 1.58423,-0.97303 1.20688,-4.22606 -0.56883,-4.90321 -5.00746,-1.90964 -8.5285,0.54876 -6.41278,4.47746 1.00967,1.87494 4.29585,2.07533 6.98161,0.42575 z m -38.22058,-26.54158 c 0,-2.3586 -2.66101,-3.72407 -4.22621,-2.16862 -1.56521,1.55545 -0.19119,4.2 2.18213,4.2 1.38379,0 2.04408,-0.65621 2.04408,-2.03138 z"
       style="fill:#000000" />
  </g>
</svg>
